<svg xmlns="http://www.w3.org/2000/svg" xmlns:xlink="http://www.w3.org/1999/xlink" viewBox="0,0,256,256" width="26px" height="26px" fill-rule="nonzero"><g fill="#000000" fill-rule="nonzero" stroke="none" stroke-width="1" stroke-linecap="butt" stroke-linejoin="miter" stroke-miterlimit="10" stroke-dasharray="" stroke-dashoffset="0" font-family="none" font-weight="none" font-size="none" text-anchor="none" style="mix-blend-mode: normal"><path d="M0,256v-256h256v256z" id="bgRectangle"></path></g><g fill="#ffffff" fill-rule="nonzero" stroke="none" stroke-width="1" stroke-linecap="butt" stroke-linejoin="miter" stroke-miterlimit="10" stroke-dasharray="" stroke-dashoffset="0" font-family="none" font-weight="none" font-size="none" text-anchor="none" style="mix-blend-mode: normal"><g transform="scale(4,4)"><path d="M44.981,57.959c-3.86,0 -7,-3.14 -7,-7c0,-3.86 3.14,-7 7,-7c3.86,0 7,3.14 7,7c0,3.86 -3.141,7 -7,7z"></path><path d="M13.994,40.008c-3.86,0 -7,-3.14 -7,-7c0,-3.86 3.14,-7 7,-7c3.86,0 7,3.14 7,7c0,3.86 -3.14,7 -7,7z"></path><path d="M37.084,32.855l6.351,11c0.552,0.957 0.186,2.117 -0.732,2.732c-0.97,0.65 -2.361,-0.09 -2.732,-0.732l-6.351,-11h-12.702c-1.104,0 -2,-0.896 -2,-2c0,-1.104 0.896,-2 2,-2h12.701l6.452,-11.175c0.553,-0.956 1.773,-1.286 2.732,-0.732c0.957,0.552 1.284,1.775 0.732,2.732z"></path><path d="M45.466,22.053c-3.86,0 -7,-3.14 -7,-7c0,-3.86 3.14,-7 7,-7c3.86,0 7,3.14 7,7c0,3.86 -3.14,7 -7,7z"></path></g></g></svg>